<?xml version="1.0" encoding="UTF-8"?>
<svg id="Layer_1" data-name="Layer 1" xmlns="http://www.w3.org/2000/svg" viewBox="0 0 512 512">
  <defs>
    <style>
      .cls-1 {
        stroke-width: 0px;
      }
    </style>
  </defs>
  <path class="cls-1" d="m297.34,219.26c-26.95-26.95-54.62-50.09-77.92-65.17-28.68-18.55-46.64-22.58-56.55-12.68-1.89,1.89-3.27,4.09-4.14,6.59L4.38,497.95c-1.66,3.77-.84,8.18,2.07,11.1,1.92,1.92,4.48,2.94,7.09,2.94,1.35,0,2.71-.27,4-.84l351.15-153.34c2.46-.87,4.62-2.23,6.49-4.1,9.9-9.9,5.87-27.87-12.68-56.55-15.07-23.3-38.22-50.97-65.17-77.92h0Zm-25.31,158.93l-26.35-26.35c-3.91-3.91-10.25-3.91-14.15,0-3.91,3.91-3.91,10.25,0,14.15l20.8,20.8-98.35,42.95-67.75-67.75,43.25-98.05,45.44,45.44c1.95,1.95,4.52,2.93,7.08,2.93s5.12-.98,7.08-2.93c3.91-3.91,3.91-10.25,0-14.15l-50.93-50.93,27.73-62.87c2.61,5.06,5.83,10.56,9.69,16.53,15.08,23.3,38.22,50.97,65.17,77.92,26.95,26.95,54.62,50.09,77.92,65.17,5.92,3.83,11.37,7.03,16.4,9.63l-63.01,27.52Zm11.16-144.77c23.79,23.79,44.79,48.49,59.13,69.54,13.83,20.31,17.54,31.51,18.03,35.92-4.42-.49-15.61-4.19-35.92-18.03-21.05-14.34-45.75-35.34-69.54-59.13-23.79-23.79-44.79-48.49-59.13-69.54-13.83-20.31-17.54-31.51-18.03-35.92,4.42.49,15.61,4.19,35.92,18.03,21.05,14.34,45.75,35.34,69.54,59.13h0Zm-205.63,148.22l56.71,56.71-101.21,44.2,44.51-100.91Z"/>
  <path class="cls-1" d="m419.49,106.29c-1.25-7.26-1.31-9.68.7-11.69,2.02-2.02,4.43-1.96,11.7-.71,7.8,1.35,19.6,3.38,29.25-6.28,3.91-3.91,3.91-10.25,0-14.15-3.91-3.91-10.25-3.91-14.15,0-2.02,2.02-4.44,1.96-11.7.71-7.8-1.35-19.6-3.38-29.25,6.28-9.66,9.66-7.62,21.45-6.27,29.25,1.25,7.26,1.31,9.68-.7,11.7-2.02,2.02-4.43,1.96-11.69.7-7.8-1.35-19.59-3.38-29.25,6.28-9.66,9.66-7.62,21.45-6.27,29.25,1.26,7.26,1.31,9.68-.7,11.69-2.02,2.02-4.43,1.96-11.69.7-7.8-1.35-19.59-3.38-29.25,6.28-3.91,3.91-3.91,10.25,0,14.15,1.95,1.95,4.51,2.93,7.08,2.93s5.12-.98,7.08-2.93c2.02-2.02,4.43-1.96,11.69-.7,7.8,1.35,19.59,3.38,29.25-6.28,9.66-9.66,7.62-21.45,6.27-29.25-1.26-7.26-1.31-9.68.7-11.69,2.02-2.02,4.43-1.96,11.69-.7,7.8,1.35,19.6,3.38,29.25-6.28,9.66-9.66,7.63-21.45,6.28-29.26h0Z"/>
  <path class="cls-1" d="m221.16,117.17c1.95,1.95,4.52,2.93,7.08,2.93s5.12-.98,7.08-2.93c24.89-24.89,24.89-65.4,0-90.29-3.91-3.91-10.24-3.91-14.15,0-3.91,3.91-3.91,10.24,0,14.15,17.09,17.09,17.09,44.9,0,61.99-3.91,3.91-3.91,10.25,0,14.15Z"/>
  <path class="cls-1" d="m452.94,297.3c-17.05,0-33.08,6.64-45.14,18.7-3.91,3.91-3.91,10.25,0,14.15,3.91,3.91,10.25,3.91,14.15,0,8.28-8.28,19.28-12.84,30.99-12.84s22.71,4.56,30.99,12.84c1.95,1.95,4.52,2.93,7.08,2.93s5.12-.98,7.08-2.93c3.91-3.91,3.91-10.25,0-14.15-12.06-12.06-28.09-18.7-45.14-18.7h0Z"/>
  <path class="cls-1" d="m483.06,50.04c5.53,0,10.01-4.48,10.01-10.01V10.01c0-5.53-4.48-10.01-10.01-10.01s-10.01,4.48-10.01,10.01v30.03c0,5.53,4.48,10.01,10.01,10.01Z"/>
  <path class="cls-1" d="m304.38,70.14h9.93v9.93c0,5.53,4.48,10.01,10.01,10.01s10.01-4.48,10.01-10.01v-9.93h9.93c5.53,0,10.01-4.48,10.01-10.01s-4.48-10.01-10.01-10.01h-9.93v-9.93c0-5.53-4.48-10.01-10.01-10.01s-10.01,4.48-10.01,10.01v9.93h-9.93c-5.53,0-10.01,4.48-10.01,10.01s4.48,10.01,10.01,10.01Z"/>
  <path class="cls-1" d="m498.46,141.12h-30.03c-5.53,0-10.01,4.48-10.01,10.01s4.48,10.01,10.01,10.01h30.03c5.53,0,10.01-4.48,10.01-10.01s-4.48-10.01-10.01-10.01Z"/>
  <path class="cls-1" d="m433.41,263.22c16.56,0,30.03-13.47,30.03-30.03s-13.47-30.03-30.03-30.03-30.03,13.47-30.03,30.03,13.47,30.03,30.03,30.03Zm0-40.03c5.52,0,10.01,4.49,10.01,10.01s-4.49,10.01-10.01,10.01-10.01-4.49-10.01-10.01,4.49-10.01,10.01-10.01Z"/>
  <path class="cls-1" d="m210.3,320.61c-5.53,0-10.01,4.48-10.01,10.01s4.48,10.01,10.01,10.01h.01c5.53,0,10-4.48,10-10.01s-4.49-10.01-10.01-10.01h0Z"/>
  <path class="cls-1" d="m434.4,360.54c-5.53,0-10.01,4.48-10.01,10.01s4.48,10.01,10.01,10.01h.01c5.53,0,10-4.48,10-10.01s-4.49-10.01-10.01-10.01Z"/>
  <path class="cls-1" d="m494.46,200.17c-5.53,0-10.01,4.48-10.01,10.01s4.48,10.01,10.01,10.01h.01c5.53,0,10-4.48,10-10.01s-4.49-10.01-10.01-10.01Z"/>
  <path class="cls-1" d="m364.01,230.89c-5.53,0-10.01,4.48-10.01,10.01s4.48,10.01,10.01,10.01h.01c5.53,0,10-4.48,10-10.01s-4.49-10.01-10.01-10.01Z"/>
  <path class="cls-1" d="m283.37,131.11c-5.53,0-10.01,4.48-10.01,10.01s4.48,10.01,10.01,10.01h.01c5.53,0,10-4.48,10-10.01s-4.49-10.01-10.01-10.01Z"/>
  <path class="cls-1" d="m404.47,11c-5.53,0-10.01,4.48-10.01,10.01s4.48,10.01,10.01,10.01h.01c5.53,0,10-4.48,10-10.01s-4.49-10.01-10.01-10.01Z"/>
  <path class="cls-1" d="m174.19,60.05c-5.53,0-10.01,4.48-10.01,10.01s4.48,10.01,10.01,10.01h.01c5.53,0,10-4.48,10-10.01s-4.49-10.01-10.01-10.01h0Z"/>
</svg>