<?xml version="1.0" encoding="UTF-8"?>
<svg id="Layer_1" data-name="Layer 1" xmlns="http://www.w3.org/2000/svg" viewBox="0 0 512 512">
  <defs>
    <style>
      .cls-1, .cls-2 {
        stroke-width: 0px;
      }

      .cls-2 {
        fill: #e9eff0;
      }
    </style>
  </defs>
  <path class="cls-2" d="m256,10C120.02,10,10,120.04,10,256s109.84,246,246,246,246-110.92,246-246S391.96,10,256,10Z"/>
  <path class="cls-1" d="m166,196c0,49.63,40.37,90,90,90s90-40.37,90-90-40.37-90-90-90c-49.63,0-90,40.37-90,90Zm160,0c0,38.6-31.4,70-70,70s-70-31.4-70-70,31.4-70,70-70,70,31.4,70,70Z"/>
  <circle class="cls-1" cx="440" cy="92" r="10"/>
  <path class="cls-1" d="m256,512c141.9,0,256-114.93,256-256,0-46.97-12.81-92.88-37.03-132.78-2.87-4.72-9.02-6.22-13.74-3.36-4.72,2.87-6.22,9.02-3.36,13.74,22.33,36.77,34.13,79.09,34.13,122.4,0,68.43-28.77,131.9-79.48,176.68-15.44-72.81-80-126.68-156.52-126.68s-141.1,53.88-156.51,126.69c-50.71-44.79-79.49-108.26-79.49-176.69C20,125.87,125.87,20,256,20c52.99,0,103.03,17.11,144.72,49.5,4.36,3.39,10.64,2.6,14.03-1.76,3.39-4.36,2.6-10.64-1.76-14.03C367.76,18.57,313.47,0,256,0,187.56,0,123.26,26.62,74.94,74.94,26.61,123.27,0,187.57,0,256c0,141.43,114.46,256,256,256Zm0-186c70.7,0,129.38,51.64,138.72,121.01-40.46,29.45-88.29,44.99-138.72,44.99s-98.26-15.54-138.71-45c9.33-69.37,68.01-121,138.71-121h0Z"/>
</svg>