<?xml version="1.0" encoding="UTF-8"?>
<svg id="Layer_1" data-name="Layer 1" xmlns="http://www.w3.org/2000/svg" viewBox="0 0 512 512">
  <defs>
    <style>
      .cls-1 {
        stroke-width: 0px;
      }
    </style>
  </defs>
  <path class="cls-1" d="m350.71,512c-20.04,0-38.62-11.52-47.35-29.34l-.08-.16-40.74-76.27-26.93,51.41c-.23.43-.49.86-.78,1.26-9.37,13.01-25.1,17.64-36.69,17.64h-.25c-13.21-.09-26.38-5.79-36.16-15.65-10.21-10.29-15.83-23.95-15.83-38.46V152.94c0-20.48,11.54-38.57,30.12-47.19,7.06-3.28,14.49-4.94,22.08-4.94,12.06,0,23.45,4.15,32.95,12.01l.2.17,137.32,102.26c4.6,3.43,5.56,9.96,2.13,14.56-1.98,2.66-5.03,4.19-8.36,4.19-2.24,0-4.39-.71-6.2-2.06l-137.57-102.45c-.16-.12-.33-.25-.49-.39-5.76-4.86-12.62-7.43-19.85-7.43-6.15,0-11.07,1.85-13.45,2.96-8.74,4.05-18.07,13.62-18.07,28.32v269.49c0,19.8,16.18,33.2,31.29,33.3h.16c6.84,0,13.97-2.78,18.17-7.09l1.06-1.09,35.84-68.4c1.79-3.42,5.31-5.56,9.18-5.58,3.89,0,7.41,2.11,9.22,5.5l50.11,93.82c.08.15.14.26.19.38,5.24,10.92,16.47,17.96,28.62,17.96,4.59,0,9.04-.98,13.21-2.91,7.77-3.59,13.63-10.01,16.51-18.08,2.78-7.79,2.43-16.23-1-23.75l-.18-.4-50.79-90.38c-1.8-3.21-1.77-7.18.09-10.35,1.86-3.18,5.3-5.15,8.98-5.15h71.89c14.47-.75,23.53-10.57,27.19-19.51,3.76-9.17,4.13-22.84-6.11-33.71-3.94-4.17-3.74-10.77.43-14.71,1.94-1.83,4.47-2.83,7.13-2.83,2.9,0,5.59,1.16,7.58,3.27,14.24,15.1,18.16,36.51,10.23,55.88-7.88,19.23-25.56,31.66-46.15,32.43-.17,0-.28,0-.39,0h-54.02l42.22,75.13c.1.18.2.37.3.57,6.19,12.76,6.97,27.15,2.19,40.52-4.77,13.37-14.5,24.01-27.38,29.97-6.89,3.18-14.22,4.79-21.79,4.8h0ZM64.73,212.31c-4.28,0-8.08-2.57-9.67-6.55-1.03-2.58-1-5.41.1-7.96s3.12-4.53,5.7-5.56l31.22-12.49c1.24-.5,2.54-.75,3.86-.75,4.28,0,8.08,2.57,9.67,6.55,2.13,5.33-.47,11.4-5.8,13.53l-31.22,12.49c-1.24.5-2.54.75-3.86.75Zm31.2-91.58c-1.43,0-2.83-.29-4.16-.88l-33.3-14.57c-2.55-1.11-4.51-3.15-5.52-5.74-1.01-2.59-.96-5.42.16-7.96,1.66-3.79,5.41-6.24,9.55-6.24,1.43,0,2.83.29,4.16.88l33.3,14.57c5.26,2.3,7.66,8.45,5.36,13.71-1.66,3.79-5.41,6.24-9.55,6.24Zm191.51-22.9c-3.34,0-6.4-1.54-8.38-4.21-3.41-4.61-2.44-11.14,2.17-14.56l28.1-20.81c1.81-1.34,3.94-2.04,6.18-2.04,3.34,0,6.4,1.54,8.38,4.21,3.41,4.61,2.44,11.14-2.17,14.56l-28.1,20.81c-1.81,1.34-3.94,2.04-6.18,2.04Zm-138.4-34.34c-3.81,0-7.32-2.07-9.14-5.41l-17.69-32.26c-2.76-5.03-.91-11.37,4.12-14.13,1.56-.85,3.23-1.29,4.99-1.29,3.81,0,7.31,2.07,9.14,5.4l17.69,32.26c1.34,2.44,1.65,5.25.87,7.92s-2.55,4.87-4.99,6.21c-1.56.85-3.23,1.29-4.98,1.29Zm75.95-8.32c-1.11,0-2.22-.18-3.29-.54-2.64-.88-4.78-2.73-6.02-5.22-1.24-2.49-1.44-5.31-.57-7.95l11.45-34.34c1.42-4.26,5.39-7.12,9.87-7.12,1.11,0,2.22.18,3.29.54,2.64.88,4.78,2.73,6.02,5.22,1.24,2.49,1.44,5.31.56,7.95l-11.45,34.34c-1.42,4.26-5.39,7.12-9.87,7.12Z"/>
</svg>