<?xml version="1.0" encoding="UTF-8"?>
<svg id="Layer_1" data-name="Layer 1" xmlns="http://www.w3.org/2000/svg" viewBox="0 0 512 512">
  <defs>
    <style>
      .cls-1 {
        fill: #fff;
        stroke: #000;
        stroke-miterlimit: 10;
        stroke-width: 10.75px;
      }

      .cls-2 {
        font-family: Montserrat-Bold, Montserrat;
        font-size: 71.64px;
        font-weight: 700;
      }

      .cls-3, .cls-4, .cls-5 {
        stroke-width: 0px;
      }

      .cls-4 {
        fill: #eccf00;
      }

      .cls-5 {
        fill: #e9eff0;
      }
    </style>
  </defs>
  <g>
    <path class="cls-5" d="m256,10C120.02,10,10,120.04,10,256s109.84,246,246,246,246-110.92,246-246S391.96,10,256,10Z"/>
    <g>
      <path class="cls-4" d="m170.37,154.44l104.48-.61c4.65-.03,8.45,3.72,8.47,8.38l.92,158.4c.03,4.65-3.72,8.45-8.38,8.47l-104.48.61c-4.65.03-8.45-3.72-8.47-8.38l-.92-158.4c-.03-4.65,3.72-8.45,8.38-8.47Z"/>
      <path class="cls-4" d="m82.23,149.45l100.92-27.04c4.49-1.2,9.11,1.46,10.32,5.96l41,153.01c1.2,4.49-1.46,9.11-5.96,10.32l-100.92,27.04c-4.49,1.2-9.11-1.46-10.32-5.96l-41-153.01c-1.2-4.49,1.46-9.11,5.96-10.32Z"/>
      <g>
        <path class="cls-3" d="m274.83,149.93h-71.22l-6.07-22.65c-.87-3.26-2.97-5.99-5.89-7.67-2.92-1.69-6.33-2.14-9.59-1.26l-100.92,27.04c-3.26.87-5.99,2.97-7.67,5.89-1.69,2.92-2.14,6.33-1.26,9.59l41,153.01c.87,3.26,2.97,5.99,5.89,7.67,1.95,1.12,4.11,1.7,6.3,1.7,1.1,0,2.2-.14,3.29-.44l29.03-7.78v5.94c0,6.97,5.67,12.64,12.64,12.64h104.48c6.97,0,12.64-5.67,12.64-12.64v-60.24c0-2.33-1.89-4.21-4.21-4.21s-4.21,1.89-4.21,4.21v60.24c0,2.32-1.89,4.21-4.21,4.21h-104.48c-2.32,0-4.21-1.89-4.21-4.21v-158.4c0-2.32,1.89-4.21,4.21-4.21h104.48c2.32,0,4.21,1.89,4.21,4.21v60.24c0,2.33,1.89,4.21,4.21,4.21s4.21-1.89,4.21-4.21v-60.24c0-6.97-5.67-12.64-12.64-12.64Zm-117.12,87.65,0,68.73l-31.21,8.36c-1.09.29-2.22.14-3.2-.42-.97-.56-1.67-1.47-1.96-2.56l-41-153.01c-.6-2.24.74-4.56,2.98-5.16l100.92-27.04c1.09-.29,2.22-.14,3.2.42.97.56,1.67,1.47,1.96,2.56l5.48,20.47h-24.53c-6.97,0-12.64,5.67-12.64,12.64h0s0,143.74,0,143.74Z"/>
        <path class="cls-3" d="m283.25,237.55c-1.11,0-2.19.45-2.98,1.23-.78.78-1.23,1.87-1.23,2.98s.45,2.19,1.23,2.98,1.87,1.23,2.98,1.23,2.19-.45,2.98-1.23c.78-.78,1.23-1.87,1.23-2.98s-.45-2.19-1.23-2.98c-.78-.78-1.87-1.23-2.98-1.23Z"/>
      </g>
    </g>
    <g>
      <circle class="cls-3" cx="435.88" cy="94.04" r="10"/>
      <path class="cls-3" d="m479.65,131.53c21.82,39.04,33.7,84.35,32.23,132.49-4.21,137.19-118.17,247.74-255.42,247.98C109.47,512.25-9.11,387.99.55,239.03,8.87,110.69,113.1,7.51,241.52.4c61.79-3.42,119.22,15.21,165.12,48.72,4.92,3.59,5.62,10.69,1.54,15.22h0c-3.51,3.9-9.41,4.57-13.65,1.47-42.36-30.94-95.4-48.09-152.45-44.79C124.26,27.85,28.79,122.6,21.14,240.36c-9.23,141.99,108.28,259.59,250.24,250.52,111.94-7.15,212.34-107.55,219.5-219.49,3.02-47.25-7.99-91.79-29.26-129.85-2.62-4.68-1.18-10.57,3.28-13.55h0c5.01-3.34,11.82-1.71,14.75,3.54Z"/>
    </g>
    <g>
      <path class="cls-4" d="m330.21,234.25l87.99,56.33c3.92,2.51,5.06,7.72,2.55,11.64l-85.41,133.41c-2.51,3.92-7.72,5.06-11.64,2.55l-87.99-56.33c-3.92-2.51-5.06-7.72-2.55-11.64l85.41-133.41c2.51-3.92,7.72-5.06,11.64-2.55Z"/>
      <path class="cls-4" d="m258.97,182.1l99.39,32.22c4.43,1.43,6.85,6.19,5.42,10.61l-48.84,150.69c-1.43,4.43-6.19,6.85-10.61,5.42l-99.39-32.22c-4.43-1.43-6.85-6.19-5.42-10.61l48.84-150.69c1.44-4.43,6.19-6.85,10.61-5.42Z"/>
      <g>
        <path class="cls-3" d="m420.31,287.28l-59.76-38.75,7.23-22.3c1.04-3.21.77-6.64-.77-9.64-1.53-3.01-4.15-5.24-7.36-6.28l-99.39-32.22c-3.21-1.04-6.64-.77-9.64.77-3.01,1.53-5.24,4.15-6.28,7.36l-48.84,150.69c-1.04,3.21-.77,6.64.77,9.64,1.02,2,2.52,3.66,4.36,4.85.92.6,1.93,1.08,3,1.42l28.59,9.27-3.23,4.99c-3.79,5.85-2.12,13.69,3.73,17.48l87.66,56.84c5.85,3.79,13.69,2.12,17.48-3.73l32.78-50.55c1.27-1.95.71-4.56-1.24-5.83-1.95-1.27-4.56-.71-5.83,1.24l-32.78,50.55c-1.26,1.95-3.88,2.51-5.83,1.24l-87.66-56.84c-1.95-1.26-2.51-3.88-1.24-5.83l86.18-132.91c1.26-1.95,3.88-2.51,5.83-1.24l87.66,56.84c1.95,1.26,2.51,3.88,1.24,5.83l-32.78,50.55c-1.27,1.95-.71,4.56,1.24,5.83,1.95,1.27,4.56.71,5.83-1.24l32.78-50.55c3.79-5.85,2.12-13.69-3.73-17.48Zm-145.95,9.82-37.39,57.67l-30.74-9.96c-1.07-.35-1.94-1.09-2.45-2.09-.51-1-.6-2.14-.26-3.21l48.84-150.69c.72-2.21,3.1-3.42,5.31-2.71l99.39,32.22c1.07.35,1.94,1.09,2.45,2.09.51,1,.6,2.14.26,3.21l-6.53,20.16-20.58-13.35c-5.85-3.79-13.69-2.12-17.48,3.73h0s-78.2,120.6-78.2,120.6Z"/>
        <path class="cls-3" d="m379.71,365.39c-.93-.6-2.09-.82-3.17-.58s-2.05.9-2.66,1.83-.82,2.09-.58,3.17.9,2.05,1.83,2.66,2.09.82,3.17.58c1.08-.23,2.05-.9,2.66-1.83s.82-2.09.58-3.17-.9-2.05-1.83-2.66Z"/>
      </g>
    </g>
  </g>
  <g>
    <circle class="cls-1" cx="377.71" cy="268.67" r="83.6"/>
    <text class="cls-2" transform="translate(317.86 290.35)"><tspan x="0" y="0">x36</tspan></text>
  </g>
</svg>