<?xml version="1.0" encoding="UTF-8"?>
<svg id="Layer_1" data-name="Layer 1" xmlns="http://www.w3.org/2000/svg" viewBox="0 0 512 512">
  <defs>
    <style>
      .cls-1, .cls-2, .cls-3, .cls-4 {
        stroke-width: 0px;
      }

      .cls-2 {
        fill: #3a41cb;
      }

      .cls-3 {
        fill: #e20000;
      }

      .cls-4 {
        fill: #e9eff0;
      }
    </style>
  </defs>
  <path class="cls-4" d="m256,10C120.02,10,10,120.04,10,256s109.84,246,246,246,246-110.92,246-246S391.96,10,256,10Z"/>
  <g>
    <circle class="cls-2" cx="355.61" cy="206" r="80" transform="translate(-32.54 70.97) rotate(-10.9)"/>
    <circle class="cls-3" cx="148.71" cy="206" r="80" transform="translate(-102.11 165.49) rotate(-45)"/>
  </g>
  <circle class="cls-1" cx="440" cy="92" r="10"/>
  <polygon class="cls-3" points="42.06 365.59 111.29 330.69 165.65 327.25 205.13 340.99 238.71 360.44 265.61 399 297.26 453.71 306.41 494.34 275.61 502 174.23 482 86.12 440.55 44.67 382.02 42.06 365.59"/>
  <polygon class="cls-2" points="256 361.01 302.41 340.99 351.05 330.12 396.82 330.12 445.61 345.57 462.62 369.03 459.76 399 419.71 443.41 362.49 482 306.41 494.34 299.55 465.73 278.38 399 256 361.01"/>
  <path class="cls-1" d="m99.48,432.69c-50.71-44.79-79.49-108.26-79.49-176.69C20,125.87,125.87,20,256,20c52.99,0,103.03,17.11,144.72,49.5,4.36,3.39,10.64,2.6,14.03-1.76,3.39-4.36,2.6-10.64-1.76-14.03C367.76,18.57,313.47,0,256,0,187.56,0,123.26,26.62,74.94,74.94,26.61,123.27,0,187.57,0,256c0,141.43,114.46,256,256,256s256-114.93,256-256c0-46.97-12.81-92.88-37.03-132.78-2.87-4.72-9.02-6.22-13.74-3.36-4.72,2.87-6.22,9.02-3.36,13.74,22.33,36.77,34.13,79.1,34.13,122.4,0,68.43-28.77,131.9-79.48,176.68l-17.8,14.32c-40.46,29.45-88.29,44.99-138.72,44.99s-98.26-15.54-138.71-45l-17.8-14.31Z"/>
  <path class="cls-1" d="m319.3,497.42l-14.06-54.74c-6.07-28.61-19.75-54.28-38.73-74.93,24.23-19.92,55.28-31.76,89.1-31.76,43.71,0,82.8,19.75,108.51,51.21,3.73-5.9,7.21-11.98,10.43-18.2-29.37-32.62-71.88-53.01-118.94-53.01-39.33,0-75.48,14.26-103.45,37.98-27.97-23.72-64.12-37.98-103.45-37.98-44.46,0-84.85,18.21-113.95,47.72,3.05,6.25,6.36,12.36,9.9,18.3,25.65-28.42,62.79-46.02,104.04-46.02,29.64,0,61.4,10.55,88,32.97l14.23,13.73c23.41,25.77,43.67,70.07,48.64,119.3"/>
  <path class="cls-1" d="m355.61,296c49.63,0,90-40.37,90-90s-40.37-90-90-90-90,40.37-90,90,40.37,90,90,90Zm0-160c38.6,0,70,31.4,70,70s-31.4,70-70,70-70-31.4-70-70,31.4-70,70-70Z"/>
  <path class="cls-1" d="m148.71,296c49.63,0,90-40.37,90-90s-40.37-90-90-90-90,40.37-90,90,40.37,90,90,90Zm0-160c38.6,0,70,31.4,70,70s-31.4,70-70,70-70-31.4-70-70,31.4-70,70-70Z"/>
</svg>