<?xml version="1.0" encoding="UTF-8"?>
<svg id="Layer_1" data-name="Layer 1" xmlns="http://www.w3.org/2000/svg" viewBox="0 0 512 512">
  <defs>
    <style>
      .cls-1 {
        stroke-width: 0px;
      }
    </style>
  </defs>
  <path class="cls-1" d="m39.94,434.18c-22.02,0-39.94-17.91-39.94-39.94V117.76c0-22.02,17.92-39.94,39.94-39.94h432.13c22.02,0,39.94,17.92,39.94,39.94v276.48c0,22.02-17.92,39.94-39.94,39.94H39.94Zm-8.43-18.43h448.98l-147.6-146.66-26.95,26.81c-13.34,13.34-31.07,20.68-49.94,20.68s-36.62-7.35-49.96-20.69l-26.93-26.79L31.51,415.74Zm314.45-159.66l147.61,146.67V109.25l-147.61,146.83ZM18.43,402.75l147.61-146.67L18.43,109.25v293.5Zm200.62-119.93c9.87,9.87,23,15.31,36.94,15.31s27.06-5.43,36.93-15.3c5.58-5.55,187.57-186.58,187.57-186.58H31.5s185.56,184.59,187.55,186.57Z"/>
</svg>