<?xml version="1.0" encoding="UTF-8"?>
<svg id="Layer_1" data-name="Layer 1" xmlns="http://www.w3.org/2000/svg" viewBox="0 0 512 512">
  <defs>
    <style>
      .cls-1 {
        stroke-width: 0px;
      }
    </style>
  </defs>
  <path class="cls-1" d="m441.1,429.01c-2.54,0-4.98-.93-6.89-2.61-4.3-3.8-4.7-10.39-.9-14.69,4.38-4.96,8.61-10.16,12.55-15.47,1.98-2.67,5.03-4.2,8.37-4.2,2.24,0,4.39.71,6.2,2.06,2.23,1.66,3.68,4.09,4.08,6.84.4,2.75-.29,5.49-1.95,7.72-4.3,5.78-8.89,11.44-13.66,16.83-1.98,2.24-4.82,3.52-7.8,3.52Z"/>
  <path class="cls-1" d="m491.74,339.01c-1.04,0-2.07-.16-3.08-.47-5.48-1.69-8.56-7.53-6.87-13.01,1.95-6.3,3.65-12.78,5.06-19.26,1.03-4.75,5.3-8.2,10.15-8.2.74,0,1.49.08,2.23.24,2.72.59,5.04,2.2,6.54,4.54,1.5,2.34,2,5.12,1.41,7.84-1.53,7.05-3.39,14.1-5.51,20.97-1.36,4.39-5.35,7.34-9.94,7.34Z"/>
  <path class="cls-1" d="m358.03,490.35c-4.09,0-7.82-2.41-9.5-6.13-1.14-2.53-1.23-5.36-.25-7.96.98-2.6,2.92-4.66,5.45-5.81,6.02-2.72,12.01-5.74,17.79-8.97,1.57-.88,3.27-1.32,5.06-1.32,3.78,0,7.27,2.04,9.1,5.33,1.36,2.43,1.69,5.24.93,7.91s-2.51,4.89-4.94,6.25c-6.3,3.52-12.82,6.8-19.38,9.76-1.36.61-2.8.93-4.27.93Z"/>
  <path class="cls-1" d="m173.58,348.82c-2.78,0-5.39-1.08-7.36-3.05-4.06-4.06-4.06-10.66,0-14.72l79.37-79.37V89.5c0-5.74,4.67-10.41,10.41-10.41s10.41,4.67,10.41,10.41v166.5c0,2.74-1.11,5.42-3.05,7.36l-82.41,82.42c-1.97,1.97-4.58,3.05-7.36,3.05Z"/>
  <path class="cls-1" d="m497.36,172.75h-104.73c-5.54,0-10.38-4.17-10.75-9.69-.41-6.06,4.41-11.12,10.38-11.12h69.17c2.79,0,4.53-3.04,3.1-5.44l-6.09-10.27c-42.2-71.19-119.77-115.41-202.45-115.41C126.32,20.81,20.81,126.32,20.81,256s105.36,235.06,234.94,235.19c.18.01.35.02.53.02h.24s.24,0,.24,0c.18,0,.35-.01.53-.02,6.55,0,13.16-.29,19.66-.83.3-.03.6-.04.9-.04,5.35,0,9.89,4.19,10.34,9.54.24,2.91-.72,5.75-2.71,7.91-1.83,1.99-4.41,3.13-7.11,3.35-6.98.57-14.06.87-21.07.88-.18-.01-.36-.02-.54-.02h-.24s-.24,0-.24,0c-.18,0-.36.01-.54.02-68.28-.07-132.47-26.69-180.76-74.98C26.63,388.67,0,324.38,0,256S26.63,123.33,74.98,74.98C123.33,26.63,187.62,0,256,0c43.05,0,85.79,11.03,123.6,31.89,37.51,20.7,69.46,50.66,92.41,86.65l10.72,16.81c2.47,3.87,8.46,2.12,8.46-2.47V55.52c0-5.54,4.17-10.38,9.69-10.75,6.06-.41,11.12,4.41,11.12,10.38v102.95c0,8.09-6.55,14.64-14.64,14.64Z"/>
</svg>