<?xml version="1.0" encoding="UTF-8"?>
<svg id="Layer_1" data-name="Layer 1" xmlns="http://www.w3.org/2000/svg" viewBox="0 0 512 512">
  <defs>
    <style>
      .cls-1 {
        fill: #fff;
        stroke: #000;
        stroke-miterlimit: 10;
        stroke-width: 10.75px;
      }

      .cls-2 {
        font-family: Montserrat-Bold, Montserrat;
        font-size: 71.64px;
        font-weight: 700;
      }

      .cls-3, .cls-4, .cls-5 {
        stroke-width: 0px;
      }

      .cls-6 {
        letter-spacing: .01em;
      }

      .cls-4 {
        fill: #eccf00;
      }

      .cls-5 {
        fill: #e9eff0;
      }
    </style>
  </defs>
  <g>
    <path class="cls-5" d="m256,10C120.02,10,10,120.04,10,256s109.84,246,246,246,246-110.92,246-246S391.96,10,256,10Z"/>
    <g>
      <path class="cls-4" d="m191.79,162.38l127.17-.74c5.66-.03,10.28,4.53,10.32,10.2l1.12,192.81c.03,5.66-4.53,10.28-10.2,10.32l-127.17.74c-5.66.03-10.28-4.53-10.32-10.2l-1.12-192.81c-.03-5.66,4.53-10.28,10.2-10.32Z"/>
      <path class="cls-4" d="m84.5,156.3l122.84-32.91c5.47-1.47,11.09,1.78,12.56,7.25l49.9,186.24c1.47,5.47-1.78,11.09-7.25,12.56l-122.84,32.91c-5.47,1.47-11.09-1.78-12.56-7.25l-49.9-186.24c-1.47-5.47,1.78-11.09,7.25-12.56Z"/>
      <g>
        <path class="cls-3" d="m318.94,156.88h-86.69l-7.39-27.57c-1.06-3.97-3.61-7.29-7.17-9.34-3.56-2.05-7.7-2.6-11.67-1.54l-122.84,32.91c-3.97,1.06-7.29,3.61-9.34,7.17-2.05,3.56-2.6,7.7-1.54,11.67l49.9,186.24c1.06,3.97,3.61,7.29,7.17,9.34,2.37,1.37,5,2.07,7.67,2.07,1.34,0,2.68-.18,4.01-.53l35.34-9.47v7.23c0,8.48,6.9,15.38,15.38,15.38h127.17c8.48,0,15.38-6.9,15.38-15.38v-73.33c0-2.83-2.3-5.13-5.13-5.13s-5.13,2.3-5.13,5.13v73.33c0,2.83-2.3,5.13-5.13,5.13h-127.17c-2.83,0-5.13-2.3-5.13-5.13v-192.81c0-2.83,2.3-5.13,5.13-5.13h127.17c2.83,0,5.13,2.3,5.13,5.13v73.33c0,2.83,2.3,5.13,5.13,5.13s5.13-2.3,5.13-5.13v-73.33c0-8.48-6.9-15.38-15.38-15.38Zm-142.56,106.69,0,83.65l-37.99,10.18c-1.32.35-2.7.17-3.89-.51-1.19-.68-2.03-1.79-2.39-3.11l-49.9-186.24c-.73-2.73.89-5.55,3.63-6.28l122.84-32.91c1.32-.35,2.7-.17,3.89.51,1.19.68,2.03,1.79,2.39,3.11l6.68,24.91h-29.86c-8.48,0-15.38,6.9-15.38,15.38h0s0,174.96,0,174.96Z"/>
        <path class="cls-3" d="m329.19,263.54c-1.35,0-2.67.55-3.63,1.5s-1.5,2.28-1.5,3.63.55,2.67,1.5,3.63c.95.95,2.28,1.5,3.63,1.5s2.67-.55,3.63-1.5c.95-.95,1.5-2.28,1.5-3.63s-.55-2.67-1.5-3.63c-.95-.95-2.28-1.5-3.63-1.5Z"/>
      </g>
    </g>
    <g>
      <circle class="cls-3" cx="435.88" cy="94.04" r="10"/>
      <path class="cls-3" d="m479.65,131.53c21.82,39.04,33.7,84.35,32.23,132.49-4.21,137.19-118.17,247.74-255.42,247.98C109.47,512.25-9.11,387.99.55,239.03,8.87,110.69,113.1,7.51,241.52.4c61.79-3.42,119.22,15.21,165.12,48.72,4.92,3.59,5.62,10.69,1.54,15.22h0c-3.51,3.9-9.41,4.57-13.65,1.47-42.36-30.94-95.4-48.09-152.45-44.79C124.26,27.85,28.79,122.6,21.14,240.36c-9.23,141.99,108.28,259.59,250.24,250.52,111.94-7.15,212.34-107.55,219.5-219.49,3.02-47.25-7.99-91.79-29.26-129.85-2.62-4.68-1.18-10.57,3.28-13.55h0c5.01-3.34,11.82-1.71,14.75,3.54Z"/>
    </g>
  </g>
  <g>
    <circle class="cls-1" cx="377.71" cy="268.67" r="83.6"/>
    <text class="cls-2" transform="translate(317.86 290.35)"><tspan class="cls-6" x="0" y="0">x</tspan><tspan x="43.56" y="0">18</tspan></text>
  </g>
</svg>