<?xml version="1.0" encoding="UTF-8"?>
<svg id="Layer_1" data-name="Layer 1" xmlns="http://www.w3.org/2000/svg" xmlns:xlink="http://www.w3.org/1999/xlink" viewBox="0 0 512 512">
  <defs>
    <style>
      .cls-1 {
        clip-path: url(#clippath);
      }

      .cls-2 {
        fill: none;
      }

      .cls-2, .cls-3, .cls-4 {
        stroke-width: 0px;
      }

      .cls-3 {
        fill: #e44c3c;
      }

      .cls-4 {
        fill: #eec10f;
      }
    </style>
    <clipPath id="clippath">
      <path class="cls-2" d="m512,256c0,141.38-114.62,256-256,256S0,397.38,0,256h0C0,114.62,114.62,0,256,0s256,114.62,256,256h0Z"/>
    </clipPath>
  </defs>
  <g id="layer1">
    <g id="g3238">
      <g class="cls-1">
        <g id="g29913">
          <path id="path17502" class="cls-3" d="m-80.17,521.24h799.77V-12.33H-80.17v533.57Z"/>
        </g>
      </g>
      <g id="g3231">
        <path id="path7406" class="cls-4" d="m125.68,76.34l12.84,39.51h41.55l-33.62,24.48,12.81,39.57-33.58-24.48-33.65,24.48,12.84-39.57-33.62-24.48h41.55l12.87-39.51Z"/>
        <path id="path7408" class="cls-4" d="m233.98,55.67l-.85,13.67,12.69,5.05-13.23,3.38-.91,13.67-7.3-11.57-13.23,3.38,8.73-10.53-7.3-11.57,12.69,5.08,8.73-10.56Z"/>
        <path id="path7410" class="cls-4" d="m280.68,100l-6.24,12.18,9.64,9.71-13.48-2.19-6.27,12.21-2.1-13.55-13.51-2.16,12.17-6.18-2.07-13.52,9.61,9.68,12.23-6.18"/>
        <path id="path7412" class="cls-4" d="m266.65,155.46l4.17,13.03,13.72.02-11.1,8.01,4.23,13.03-11.04-8.04-11.1,8.04,4.26-13.03-11.04-8.04,13.66.02,4.26-13.06"/>
        <path id="path7414" class="cls-4" d="m233.92,197.23l-.91,13.67,12.72,5.08-13.26,3.35-.88,13.67-7.3-11.57-13.26,3.38,8.73-10.5-7.3-11.6,12.72,5.08,8.76-10.56"/>
      </g>
    </g>
  </g>
</svg>