<?xml version="1.0" encoding="UTF-8"?>
<svg id="Layer_1" data-name="Layer 1" xmlns="http://www.w3.org/2000/svg" viewBox="0 0 512 512">
  <defs>
    <style>
      .cls-1, .cls-2, .cls-3 {
        fill-rule: evenodd;
      }

      .cls-1, .cls-2, .cls-3, .cls-4, .cls-5 {
        stroke-width: 0px;
      }

      .cls-1, .cls-4 {
        fill: #e92b2b;
      }

      .cls-2 {
        fill: #ffe70e;
      }

      .cls-3 {
        fill: #32ab45;
      }

      .cls-5 {
        fill: #fbfbfb;
      }
    </style>
  </defs>
  <g>
    <path class="cls-1" d="m512,256c0,141.39-114.61,256-256,256S0,397.39,0,256,114.61,0,256,0s256,114.61,256,256Z"/>
    <path class="cls-3" d="m182.86,501.4C77.11,469.92,0,371.97,0,256S77.11,42.07,182.86,10.6v490.8Z"/>
    <path class="cls-2" d="m182.86,201.14c-30.3,0-54.86,24.56-54.86,54.86s24.56,54.86,54.86,54.86,54.86-24.56,54.86-54.86-24.56-54.86-54.86-54.86Zm-73.14,54.86c0-40.4,32.75-73.14,73.14-73.14s73.14,32.75,73.14,73.14-32.75,73.14-73.14,73.14-73.14-32.75-73.14-73.14Z"/>
    <path class="cls-2" d="m222.11,308.18l-91.43-91.43,12.93-12.93,91.43,91.43-12.93,12.93Z"/>
    <path class="cls-2" d="m173.71,320.65v-129.3h18.29v129.3h-18.29Z"/>
    <path class="cls-2" d="m118.84,247.51h129.3v18.29H118.84v-18.29Z"/>
    <path class="cls-2" d="m143.61,308.18l91.43-91.43-12.93-12.93-91.43,91.43,12.93,12.93Z"/>
  </g>
  <path class="cls-4" d="m210.29,219.43h-54.86c-5.05,0-9.14,4.09-9.14,9.14v36.57c0,20.2,16.37,36.57,36.57,36.57s36.57-16.37,36.57-36.57v-36.57c0-5.05-4.09-9.14-9.14-9.14Z"/>
  <path class="cls-5" d="m201.14,237.71h-36.57v27.43c0,10.1,8.19,18.29,18.29,18.29s18.29-8.19,18.29-18.29v-27.43Z"/>
</svg>