<?xml version="1.0" encoding="UTF-8"?>
<svg id="Layer_1" data-name="Layer 1" xmlns="http://www.w3.org/2000/svg" viewBox="0 0 512 512">
  <defs>
    <style>
      .cls-1 {
        fill: #d80027;
      }

      .cls-1, .cls-2 {
        stroke-width: 0px;
      }

      .cls-2 {
        fill: #f0f0f0;
      }
    </style>
  </defs>
  <circle class="cls-1" cx="256" cy="256" r="256"/>
  <g>
    <path class="cls-2" d="m245.52,209.19l21.01,28.95,34.02-11.03-21.04,28.92,21,28.94-34.01-11.07-21.04,28.92.02-35.76-34.01-11.07,34.02-11.03.02-35.76Z"/>
    <path class="cls-2" d="m188.19,328.35c-39.96,0-72.35-32.39-72.35-72.35s32.39-72.35,72.35-72.35c12.46,0,24.18,3.15,34.41,8.7-16.05-15.7-38.01-25.39-62.24-25.39-49.18,0-89.04,39.87-89.04,89.04s39.87,89.04,89.04,89.04c24.23,0,46.19-9.69,62.24-25.39-10.23,5.55-21.96,8.7-34.41,8.7Z"/>
  </g>
</svg>