<?xml version="1.0" encoding="UTF-8"?>
<svg id="Layer_1" data-name="Layer 1" xmlns="http://www.w3.org/2000/svg" viewBox="0 0 512 512">
  <defs>
    <style>
      .cls-1 {
        stroke-width: 0px;
      }
    </style>
  </defs>
  <path class="cls-1" d="m4.75,171.49c0-33.22,25-53.6,54.62-53.6,13.01,0,27.05,4.28,35.62,10.79v14.21c-8.39-7.53-19.69-13.53-35.62-13.53-23.63,0-40.41,16.44-40.41,42.12s16.78,42.81,40.41,42.81c10.1,0,19.35-2.05,26.2-5.99v-23.29h-21.06v-11.47h34.76v41.44c-5.65,2.4-20.89,10.79-39.9,10.79-29.62,0-54.62-21.06-54.62-54.28Z"/>
  <path class="cls-1" d="m153.39,120.12h8.9l44.18,102.74h-14.04l-12.33-28.77h-45.2l-12.33,28.77h-13.36l44.18-102.74Zm22.09,62.84l-17.98-42.29-17.98,42.29h35.96Z"/>
  <path class="cls-1" d="m219.83,120.12h13.35l39.73,85.27,39.73-85.27h12.67v102.74h-13.18v-70.03c0-2.57.34-8.39.34-8.56-.34.51-2.57,6.16-3.59,8.56l-32.02,70.03h-9.25l-32.02-70.03c-1.2-2.4-3.42-8.05-3.6-8.56,0,.17.34,5.99.34,8.56v70.03h-12.5v-102.74Z"/>
  <path class="cls-1" d="m348.6,120.12h62.16v11.47h-48.46v31.34h39.9v11.47h-39.9v36.99h48.46v11.47h-62.16v-102.74Z"/>
  <path class="cls-1" d="m41.31,291.78H0v-26.11h117.3v26.11h-41.31v102.32h-34.68v-102.32Z"/>
  <path class="cls-1" d="m133.35,265.67h34.68v128.43h-34.68v-128.43Z"/>
  <path class="cls-1" d="m225.18,291.78h-41.31v-26.11h117.3v26.11h-41.31v102.32h-34.68v-102.32Z"/>
  <path class="cls-1" d="m317.21,265.67h34.68v102.32h54.58v26.11h-89.26v-128.43Z"/>
  <path class="cls-1" d="m422.74,265.67h89.26v26.11h-54.58v21.62h43.88v25.9h-43.88v28.68h54.58v26.11h-89.26v-128.43Z"/>
</svg>