<?xml version="1.0" encoding="UTF-8"?>
<svg id="Layer_1" data-name="Layer 1" xmlns="http://www.w3.org/2000/svg" viewBox="0 0 448.91 512">
  <defs>
    <style>
      .cls-1 {
        stroke-width: 0px;
      }
    </style>
  </defs>
  <path class="cls-1" d="m224.44,512c-30.32,0-59.71-5.93-87.37-17.64-26.76-11.33-50.76-27.51-71.34-48.09-20.63-20.63-36.81-44.63-48.08-71.33C5.93,347.27,0,317.87,0,287.56c0-32.22,6.69-63.32,19.88-92.44,12.69-28.13,30.78-52.97,53.76-73.84,1.97-1.79,4.52-2.78,7.17-2.78,3.05,0,5.87,1.25,7.94,3.52,1.92,2.12,2.91,4.85,2.77,7.69-.14,2.85-1.39,5.48-3.51,7.41-42.33,38.41-66.61,93.23-66.61,150.4,0,111.98,91.1,203.08,203.08,203.08s203.08-91.1,203.08-203.08c0-51.1-19.13-99.96-53.86-137.58-34.52-37.39-81.29-60.36-131.7-64.7l-28.41-2.45,51.3,51.32c2.02,2.02,3.14,4.71,3.14,7.56s-1.11,5.54-3.13,7.56-4.72,3.15-7.58,3.15-5.54-1.12-7.58-3.15l-65.44-65.51c-2.03-2.03-3.14-4.72-3.14-7.57,0-2.88,1.11-5.56,3.13-7.59L249.8,3.14c2.03-2.02,4.71-3.14,7.57-3.14s5.54,1.11,7.56,3.13c2.02,2.02,3.13,4.71,3.13,7.56s-1.11,5.54-3.13,7.56l-43.8,43.77,22.37,1.86c23.61,1.97,46.6,7.63,68.35,16.84,26.76,11.33,50.76,27.51,71.34,48.09,20.64,20.64,36.81,44.64,48.08,71.33,11.71,27.67,17.64,57.07,17.64,87.38s-5.93,59.71-17.64,87.37c-11.33,26.76-27.51,50.76-48.09,71.34-20.64,20.64-44.64,36.81-71.33,48.08-27.68,11.73-57.08,17.68-87.41,17.68Z"/>
</svg>