<?xml version="1.0" encoding="UTF-8"?>
<svg id="Layer_1" data-name="Layer 1" xmlns="http://www.w3.org/2000/svg" viewBox="0 0 512 512">
  <defs>
    <style>
      .cls-1 {
        stroke-width: 0px;
      }
    </style>
  </defs>
  <path class="cls-1" d="m234.83,344.17c-2.73,0-5.31-1.05-7.26-2.96l-79.74-77.77c-2-1.95-3.14-4.66-3.14-7.45s1.14-5.5,3.14-7.45l79.74-77.77c1.96-1.91,4.53-2.96,7.26-2.96s5.48,1.12,7.45,3.14c1.94,1.99,2.99,4.62,2.96,7.4s-1.15,5.38-3.14,7.32l-61.43,59.91h176.24c5.74,0,10.41,4.67,10.41,10.41s-4.67,10.41-10.41,10.41h-176.24l61.43,59.91c1.99,1.94,3.11,4.54,3.14,7.32s-1.02,5.41-2.96,7.4c-1.98,2.03-4.62,3.14-7.45,3.14Z"/>
  <path class="cls-1" d="m256,512c-68.38,0-132.67-26.63-181.02-74.98C26.63,388.67,0,324.38,0,256S26.63,123.33,74.98,74.98C123.33,26.63,187.62,0,256,0s132.67,26.63,181.02,74.98c48.35,48.35,74.98,112.64,74.98,181.02,0,48.14-13.44,95.04-38.86,135.65-1.92,3.06-5.22,4.89-8.84,4.89h0c-1.94,0-3.84-.55-5.5-1.59-2.36-1.48-4-3.78-4.62-6.49-.62-2.71-.15-5.5,1.32-7.85,23.35-37.3,35.69-80.39,35.69-124.61,0-129.68-105.5-235.19-235.19-235.19S20.81,126.32,20.81,256s105.5,235.19,235.19,235.19c46.48,0,91.43-13.54,129.97-39.14,1.72-1.14,3.7-1.74,5.74-1.74,3.51,0,6.75,1.74,8.69,4.65,1.54,2.32,2.08,5.09,1.53,7.82s-2.13,5.07-4.44,6.61c-41.97,27.88-90.9,42.62-141.49,42.62Z"/>
</svg>